<svg xmlns="http://www.w3.org/2000/svg" viewBox="0 0 64.8 16.7"><defs><style>.cls-1{fill:#f1f2f2;}.cls-2{fill:#a39369;}</style></defs><g id="Layer_2" data-name="Layer 2"><g id="Layer_1-2" data-name="Layer 1"><path class="cls-1" d="M11.8,11.1H10V4.4L6.9,11.1H5.2L1.8,4.2v6.9H0V.1H1.9L6,8.6,10,.1h1.8Z"/><path class="cls-1" d="M12.8,4.1a4.1,4.1,0,1,1,4,4A4,4,0,0,1,12.8,4.1Zm7.6,7H13.2V9.3h7.2Zm-5.8-7a2.2,2.2,0,0,0,2.2,2.2,2.3,2.3,0,1,0-2.2-2.2Z"/><path class="cls-1" d="M31,11.1H29.1L23.7,3.3v7.8H21.9V.2h1.8l5.5,7.7V.2H31Z"/><path class="cls-1" d="M31.9,4.1A4.1,4.1,0,0,1,36,0a4,4,0,0,1,4,4.1,4,4,0,0,1-4,4A4.1,4.1,0,0,1,31.9,4.1Zm7.6,7H32.3V9.3h7.2Zm-5.8-7A2.2,2.2,0,0,0,36,6.3a2.2,2.2,0,0,0,2.2-2.2,2.3,2.3,0,1,0-4.5,0Z"/><path class="cls-1" d="M52.9,8.3l1.3,1.3a5.4,5.4,0,0,1-9.3-4A5.3,5.3,0,0,1,50.3,0a5.3,5.3,0,0,1,3.9,1.6L52.9,2.9a3.5,3.5,0,0,0-2.6-1.1,3.5,3.5,0,0,0-3.6,3.8,3.6,3.6,0,0,0,3.6,3.8A3.5,3.5,0,0,0,52.9,8.3Z"/><path class="cls-1" d="M54.5,4.1A4.1,4.1,0,0,1,58.6,0a4,4,0,0,1,4,4.1,4,4,0,0,1-4,4A4.1,4.1,0,0,1,54.5,4.1Zm7.7,7H55V9.3h7.2Zm-5.8-7a2.2,2.2,0,1,0,4.4,0,2.2,2.2,0,1,0-4.4,0Z"/><path class="cls-1" d="M64.8,10.2a1,1,0,0,1-1,1,1.1,1.1,0,0,1-1-1,1,1,0,0,1,1-1A.9.9,0,0,1,64.8,10.2Z"/><path class="cls-2" d="M8.2,14.6H9.6l.2.2.2.2v.7H9.8a.1.1,0,0,1-.1.1l.3.8H9.4L9.1,16H8.8v.6H8.2Zm1.2.6H8.8v.6h.6Z"/><path class="cls-2" d="M13.4,14.6H15v.3H13.9v.4h.9v.4h-.9v.4H15v.3H13.4Z"/><path class="cls-2" d="M20.3,15.6v.6l-.2.2c-.1.1-.2.1-.2.2H18.4v-2h1.4l.2.2.2.2c0,.1.1.2.1.3ZM18.9,15v1.2h.7v-.8h-.7Z"/><path class="cls-2" d="M23.7,14.6h1.6v.3h-1v.4h.8v.4h-.8v.4h1c.1,0,.1,0,.1.1v.3H23.7Z"/><path class="cls-2" d="M28.8,14.6h1.5v.3h-1v.5h.8v.4h-.8v.6h-.5Z"/><path class="cls-2" d="M33.7,14.5h.6v2.1h-.6Z"/><path class="cls-2" d="M37.8,14.5h.6l.4.6a2.1,2.1,0,0,0,.4.6V14.5h.5v2.2h-.6a1.6,1.6,0,0,0-.4-.7l-.4-.6v1.2h-.5Z"/><path class="cls-2" d="M43.2,14.6h1.7v.3H43.8v.4h.8v.4h-.8v.4h1c.1,0,.1,0,.1.1v.3H43.2Z"/><path class="cls-2" d="M50.2,15.6v.3l-.2.3c0,.1-.1.1-.1.2l-.3.2H48.2v-2h1.4l.3.2V15l.2.3ZM48.8,15v1.2h.7v-.6c-.1-.1-.1-.2-.2-.2h-.6Z"/></g></g></svg>